<svg width="144" height="144" viewBox="0 0 144 144" fill="none" xmlns="http://www.w3.org/2000/svg">
<g clip-path="url(#clip0)">
<path d="M63.4146 0C28.4487 0 0 28.4487 0 63.4146C0 98.3824 28.4487 126.829 63.4146 126.829C98.3824 126.829 126.829 98.3824 126.829 63.4146C126.829 28.4487 98.3824 0 63.4146 0ZM63.4146 115.122C34.9034 115.122 11.7073 91.926 11.7073 63.4148C11.7073 34.9037 34.9034 11.7073 63.4146 11.7073C91.9257 11.7073 115.122 34.9034 115.122 63.4146C115.122 91.9257 91.9257 115.122 63.4146 115.122Z" fill="#AAAAAA"/>
<path d="M142.285 134.008L108.724 100.447C106.437 98.1597 102.734 98.1597 100.447 100.447C98.1599 102.731 98.1599 106.439 100.447 108.724L134.008 142.285C135.151 143.428 136.648 144 138.147 144C139.643 144 141.142 143.428 142.285 142.285C144.572 140 144.572 136.292 142.285 134.008Z" fill="#AAAAAA"/>
</g>
<defs>
<clipPath id="clip0">
<rect width="144" height="144" fill="white"/>
</clipPath>
</defs>
</svg>
