<svg width="144" height="144" viewBox="0 0 144 144" fill="none" xmlns="http://www.w3.org/2000/svg">
<path d="M144 72C144 111.765 111.765 144 72 144C32.2355 144 0 111.765 0 72C0 32.2355 32.2355 0 72 0C111.765 0 144 32.2355 144 72Z" fill="black" fill-opacity="0.6"/>
<g clip-path="url(#clip0)">
<path d="M57.3997 43.3598C58.5839 42.1756 60.4483 42.1756 61.6325 43.3598C62.7767 44.5041 62.7767 46.4084 61.6325 47.55L40.1697 69.0127H110.994C112.645 69.0127 114 70.325 114 71.976C114 73.6269 112.645 74.9819 110.994 74.9819H40.1697L61.6325 96.4046C62.7767 97.5888 62.7767 99.4959 61.6325 100.637C60.4483 101.822 58.5839 101.822 57.3997 100.637L30.856 74.0937C29.7117 72.9495 29.7117 71.0451 30.856 69.9036L57.3997 43.3598Z" fill="white"/>
</g>
<defs>
<clipPath id="clip0">
<rect width="84" height="84" fill="white" transform="translate(30 30)"/>
</clipPath>
</defs>
</svg>
